# xmcd CD database file
#
# Track frame offsets:
#	150
#	12532
#	24527
#	37340
#	55597
#	67962
#	80635
#	92255
#	112952
#
# Disc length: 1679 seconds
#
# Revision: 0
# Processed by: cddbd v1.5.1PL0 Copyright (c) Steve Scherf et al.
# Submitted via: CDex 1.50
#
DISCID=6a068d09
DTITLE=Freddy Fender - Freddy Fender Classic Country
DYEAR=1999
DGENRE=Country
TTITLE0=Wasted Days And Wasted Nights
TTITLE1=Before The Next Teardrop Falls
TTITLE2=I Can't Stop Lovin' You
TTITLE3=Secret Love
TTITLE4=Tell It Like It Is
TTITLE5=Rancho Grande
TTITLE6=Walking Piece Of Heaven
TTITLE7=Six Days On The Road
TTITLE8=Mexican Rose
EXTD=YEAR: 1999
EXTT0=
EXTT1=
EXTT2=
EXTT3=
EXTT4=
EXTT5=
EXTT6=
EXTT7=
EXTT8=
PLAYORDER=
